<svg xmlns="http://www.w3.org/2000/svg" viewBox="0 0 960 620">
  <defs>
    <linearGradient id="sky" x1="0" y1="0" x2="1" y2="1">
      <stop offset="0" stop-color="#E7F0FF"/>
      <stop offset="0.52" stop-color="#F8FBFF"/>
      <stop offset="1" stop-color="#EAF8F0"/>
    </linearGradient>
    <linearGradient id="phone" x1="0" y1="0" x2="1" y2="1">
      <stop offset="0" stop-color="#243B6B"/>
      <stop offset="1" stop-color="#111827"/>
    </linearGradient>
    <linearGradient id="screen" x1="0" y1="0" x2="1" y2="1">
      <stop offset="0" stop-color="#F9FAFB"/>
      <stop offset="1" stop-color="#E5F3FF"/>
    </linearGradient>
    <linearGradient id="accent" x1="0" y1="0" x2="1" y2="1">
      <stop offset="0" stop-color="#2F80ED"/>
      <stop offset="1" stop-color="#22C55E"/>
    </linearGradient>
    <filter id="softShadow" x="-20%" y="-20%" width="140%" height="140%">
      <feDropShadow dx="0" dy="22" stdDeviation="22" flood-color="#1F2937" flood-opacity="0.18"/>
    </filter>
    <clipPath id="roundedPreview">
      <rect width="960" height="620" rx="44" ry="44"/>
    </clipPath>
  </defs>
  <g clip-path="url(#roundedPreview)">
  <rect width="960" height="620" rx="44" fill="url(#sky)"/>
  <path d="M0 430c132-72 244-84 336-36 126 66 210 98 350 42 112-44 198-44 274 4v180H0z" fill="#D7F3E2"/>
  <path d="M0 482c156-38 285-28 386 30 93 53 202 58 329 15 103-35 185-34 245 2v91H0z" fill="#CBE3FF"/>

  <g filter="url(#softShadow)">
    <rect x="126" y="122" width="245" height="368" rx="42" fill="url(#phone)"/>
    <rect x="144" y="154" width="209" height="302" rx="30" fill="url(#screen)"/>
    <rect x="208" y="136" width="82" height="9" rx="4.5" fill="#94A3B8"/>
    <circle cx="248.5" cy="428" r="15" fill="#1F2937" opacity="0.22"/>
    <rect x="174" y="190" width="148" height="14" rx="7" fill="#CBD5E1"/>
    <rect x="174" y="220" width="104" height="10" rx="5" fill="#E2E8F0"/>
    <rect x="174" y="260" width="148" height="72" rx="20" fill="#DBEAFE"/>
    <circle cx="209" cy="296" r="19" fill="#2F80ED"/>
    <path d="M203 296h12m-6-6v12" stroke="#FFFFFF" stroke-width="6" stroke-linecap="round"/>
    <rect x="174" y="356" width="148" height="54" rx="17" fill="#DCFCE7"/>
    <rect x="206" y="374" width="84" height="10" rx="5" fill="#22C55E"/>
    <rect x="206" y="392" width="54" height="8" rx="4" fill="#86EFAC"/>
  </g>

  <g filter="url(#softShadow)">
    <rect x="590" y="106" width="244" height="384" rx="44" fill="url(#phone)"/>
    <rect x="608" y="138" width="208" height="318" rx="30" fill="url(#screen)"/>
    <rect x="671" y="121" width="82" height="9" rx="4.5" fill="#94A3B8"/>
    <circle cx="712" cy="428" r="15" fill="#1F2937" opacity="0.22"/>
    <rect x="638" y="176" width="148" height="14" rx="7" fill="#CBD5E1"/>
    <rect x="638" y="206" width="112" height="10" rx="5" fill="#E2E8F0"/>
    <rect x="638" y="246" width="148" height="132" rx="24" fill="#F0FDF4"/>
    <circle cx="712" cy="296" r="34" fill="url(#accent)"/>
    <path d="M698 296h28m-14-14v28" stroke="#FFFFFF" stroke-width="8" stroke-linecap="round"/>
    <rect x="664" y="344" width="96" height="10" rx="5" fill="#86EFAC"/>
    <rect x="638" y="400" width="148" height="18" rx="9" fill="#BFDBFE"/>
  </g>

  <g opacity="0.95">
    <path d="M389 274c52-42 128-42 180 0" fill="none" stroke="#2F80ED" stroke-width="12" stroke-linecap="round"/>
    <path d="M419 314c35-28 86-28 121 0" fill="none" stroke="#22C55E" stroke-width="12" stroke-linecap="round"/>
    <path d="M450 354c17-14 43-14 60 0" fill="none" stroke="#2F80ED" stroke-width="12" stroke-linecap="round"/>
    <circle cx="480" cy="392" r="12" fill="#22C55E"/>
  </g>

  <g filter="url(#softShadow)">
    <rect x="350" y="110" width="260" height="92" rx="28" fill="#FFFFFF" opacity="0.94"/>
    <circle cx="398" cy="156" r="25" fill="#17385F"/>
    <circle cx="398" cy="156" r="12" fill="none" stroke="#9CC8FF" stroke-width="5.5"/>
    <circle cx="398" cy="156" r="5.6" fill="#9CC8FF"/>
    <text x="440" y="151" font-family="Arial, Helvetica, sans-serif" font-size="22" font-weight="700" fill="#111827">DropNet</text>
    <text x="440" y="178" font-family="Arial, Helvetica, sans-serif" font-size="15" fill="#64748B">Nearby private sharing</text>
  </g>

  <g opacity="0.75">
    <circle cx="90" cy="94" r="8" fill="#2F80ED"/>
    <circle cx="858" cy="92" r="10" fill="#22C55E"/>
    <circle cx="878" cy="384" r="7" fill="#2F80ED"/>
    <circle cx="101" cy="402" r="11" fill="#22C55E"/>
  </g>
  </g>
</svg>
